<?xml version="1.0" encoding="UTF-8" standalone="no"?>
<!--
  - POSEIDON: an agent-based model of fisheries
  - Copyright (c) 2024 CoHESyS Lab cohesys.lab@gmail.com
  -
  - This program is free software: you can redistribute it and/or modify
  - it under the terms of the GNU General Public License as published by
  - the Free Software Foundation, either version 3 of the License, or
  - (at your option) any later version.
  -
  - This program is distributed in the hope that it will be useful,
  - but WITHOUT ANY WARRANTY; without even the implied warranty of
  - MERCHANTABILITY or FITNESS FOR A PARTICULAR PURPOSE.  See the
  - GNU General Public License for more details.
  -
  - You should have received a copy of the GNU General Public License
  - along with this program.  If not, see <http://www.gnu.org/licenses/>.
  -
  -->

<!-- Created with Inkscape (http://www.inkscape.org/) -->

<svg
   width="194.41542mm"
   height="194.41542mm"
   viewBox="0 0 194.41542 194.41542"
   version="1.1"
   id="svg5"
   inkscape:version="1.1.2 (0a00cf5339, 2022-02-04)"
   sodipodi:docname="port.svg"
   xmlns:inkscape="http://www.inkscape.org/namespaces/inkscape"
   xmlns:sodipodi="http://sodipodi.sourceforge.net/DTD/sodipodi-0.dtd"
   xmlns="http://www.w3.org/2000/svg"
   xmlns:svg="http://www.w3.org/2000/svg">
  <sodipodi:namedview
     id="namedview7"
     pagecolor="#ffffff"
     bordercolor="#666666"
     borderopacity="1.0"
     inkscape:pageshadow="2"
     inkscape:pageopacity="0.0"
     inkscape:pagecheckerboard="0"
     inkscape:document-units="mm"
     showgrid="false"
     inkscape:zoom="0.64052329"
     inkscape:cx="123.33665"
     inkscape:cy="564.38229"
     inkscape:window-width="1870"
     inkscape:window-height="1136"
     inkscape:window-x="1970"
     inkscape:window-y="27"
     inkscape:window-maximized="1"
     inkscape:current-layer="layer1" />
  <defs
     id="defs2" />
  <g
     inkscape:label="Layer 1"
     inkscape:groupmode="layer"
     id="layer1"
     transform="translate(-8.0365829,-8.2959518)">
    <circle
       style="opacity:0.75;fill:#ffffff;fill-opacity:1;stroke:#000000;stroke-width:5;stroke-miterlimit:4;stroke-dasharray:none;stroke-opacity:1"
       id="path303"
       cx="105.24429"
       cy="105.50366"
       r="94.70771" />
    <path
       style="fill:#000000;stroke:#000000;stroke-width:1.5;stroke-miterlimit:4;stroke-dasharray:none;stroke-opacity:1"
       d="m 104.87728,194.74629 c -0.14478,-0.38081 -0.45177,-1.41801 -0.68219,-2.30487 -1.86328,-7.17165 -5.739895,-14.76137 -10.170358,-19.91178 -5.523691,-6.42127 -10.14605,-10.45636 -18.402312,-16.06427 -8.545678,-5.8045 -9.632535,-6.65296 -14.152459,-11.04827 -5.207555,-5.06398 -6.779942,-6.89637 -9.811159,-11.43347 -2.412787,-3.61143 -6.012062,-10.57791 -6.012062,-11.63646 0,-1.19303 -0.458929,-0.49838 -1.822338,2.75836 -0.723594,1.72844 -1.412256,3.24753 -1.53036,3.37577 -0.491338,0.53352 -3.152949,-4.14158 -4.019894,-7.06091 -1.701708,-5.73027 -1.967325,-16.46493 -0.577652,-23.345139 0.55807,-2.762967 1.495083,-6.060686 1.818604,-6.400365 0.141299,-0.148357 1.674114,1.130171 3.684405,3.073168 1.893345,1.82996 4.947178,4.638087 6.786297,6.240286 5.31286,4.62846 10.720307,10.23196 12.632048,13.09003 1.937463,2.89654 2.25766,3.64936 1.707305,4.01405 -0.498795,0.33054 -6.191195,-0.017 -7.712808,-0.47087 -1.060867,-0.31645 -1.187068,-0.305 -1.184629,0.1074 0.0098,1.65193 4.301138,7.98577 7.694925,11.35732 3.97828,3.95222 9.130435,7.25435 13.747441,8.81106 2.309051,0.77855 3.125087,0.91869 5.388396,0.92536 2.418329,0.007 2.843357,-0.0745 4.554315,-0.8752 4.052237,-1.89627 6.855638,-5.94076 7.415704,-10.69871 0.39119,-3.32316 1.11082,-15.76129 2.12432,-36.716741 0.23038,-4.763398 0.54448,-11.11228 0.69799,-14.108608 0.15351,-2.996339 0.34663,-7.270836 0.42916,-9.498877 0.0826,-2.228042 0.21018,-4.62691 0.28366,-5.330807 l 0.133606,-1.279816 -5.171853,0.129593 -5.171859,0.129593 v -6.842111 -6.842101 l 1.746109,-0.184026 c 0.960369,-0.101263 3.537635,-0.100101 5.727267,0.0021 l 3.981126,0.186602 v -2.234957 -2.234979 l -1.17056,-0.527854 c -2.494986,-1.125092 -5.394605,-5.014337 -6.289106,-8.435588 -0.288456,-1.103266 -0.387416,-2.560952 -0.319605,-4.707592 0.09651,-3.054774 0.120332,-3.152488 1.354343,-5.55274 2.267812,-4.411099 5.332648,-6.769683 9.682573,-7.451322 2.46215,-0.385819 5.94265,-0.130885 8.00977,0.58669 2.71865,0.943746 5.65057,3.4484 7.26861,6.209372 0.86769,1.480598 1.85862,5.122251 1.85862,6.830422 0,1.658405 -0.7197,4.59633 -1.56145,6.374117 -1.03209,2.179839 -3.52983,5.073437 -5.15114,5.967536 l -1.38135,0.761783 -0.004,2.144867 -0.004,2.144856 5.74366,-0.04952 5.74367,-0.04952 0.0534,6.925941 0.0534,6.925941 -5.09898,-0.0812 -5.09898,-0.0812 -5.6e-4,1.396886 c -2.4e-4,0.768297 0.1243,3.722727 0.27675,6.565397 0.15245,2.842682 0.4087,7.62005 0.56944,10.616388 0.16074,2.996329 0.34701,5.950758 0.41396,6.565398 0.0669,0.614629 0.24952,3.820494 0.40576,7.124142 0.15622,3.303654 0.35083,6.823826 0.43244,7.822595 0.0816,0.99879 0.33644,5.0847 0.56628,9.07981 0.60608,10.53544 1.21122,17.63129 1.67395,19.62883 0.59136,2.55283 1.66612,4.45591 3.56674,6.31566 4.43697,4.34158 10.06043,4.5177 17.87112,0.55972 3.40045,-1.72314 6.7754,-4.41235 9.92201,-7.90601 2.52518,-2.80371 6.45598,-8.82027 6.68514,-10.23243 l 0.15503,-0.95532 -0.82003,0.40908 c -1.73633,0.86631 -8.75072,1.36932 -8.75072,0.6276 0,-1.16476 3.36114,-5.82061 6.67984,-9.25292 1.31997,-1.36517 5.10295,-4.89502 8.4066,-7.84413 3.30365,-2.949109 6.82382,-6.323585 7.8226,-7.498844 0.99877,-1.175259 1.95879,-2.139888 2.13337,-2.143647 0.44227,-0.0095 1.9628,5.657292 2.50946,9.352351 1.00299,6.77964 0.33049,16.81426 -1.41469,21.10918 -0.92023,2.26469 -3.19169,6.40961 -3.51254,6.40961 -0.14032,0 -0.9195,-1.38255 -1.73149,-3.07235 -1.39552,-2.90417 -1.89541,-3.60604 -1.89541,-2.6613 0,0.43134 -2.76027,5.83817 -4.25587,8.33644 -0.47685,0.79651 -1.32867,2.27778 -1.89296,3.29171 -3.38661,6.08516 -12.09862,15.00971 -19.27462,19.74485 -1.76707,1.16601 -3.96554,2.69449 -4.8855,3.39663 -0.91996,0.70212 -2.78844,2.06753 -4.15219,3.03422 -6.09254,4.3187 -11.97343,9.91443 -15.06585,14.33528 -2.23475,3.19475 -5.25323,8.54047 -6.53054,11.56557 -0.67013,1.58709 -0.97655,2.52616 -2.39296,7.33368 -0.32821,1.11403 -0.70345,2.0255 -0.83386,2.0255 -0.1304,0 -0.35557,-0.31157 -0.50036,-0.69239 z m 0.95161,-20.89612 c 0.0814,-0.64947 0.20144,-25.06771 0.26665,-54.26276 0.0653,-29.195059 0.16301,-53.270506 0.21731,-53.500992 0.0772,-0.327451 -0.24363,-0.437119 -1.46729,-0.501646 l -1.56601,-0.08257 -0.17769,1.47948 c -0.0978,0.813712 -0.182,3.553853 -0.18729,6.08922 -0.0129,6.168172 -0.75506,29.553418 -1.10159,34.709128 -0.1522,2.26444 -0.34707,6.22464 -0.43304,8.80041 -0.19849,5.94629 -0.85556,13.55935 -1.407765,16.31061 -0.97289,4.84719 -3.302116,9.73273 -5.451976,11.43545 -1.722424,1.36418 -3.08987,1.74661 -6.687301,1.87021 -2.952476,0.10147 -3.524225,0.0312 -7.054943,-0.86571 -4.578316,-1.16313 -8.259947,-2.83839 -12.650806,-5.75652 -3.955704,-2.62892 -6.499751,-4.91723 -9.581279,-8.6182 -4.344473,-5.21776 -6.434609,-9.01573 -8.695891,-15.80123 -1.322877,-3.9696 -2.488042,-5.84821 -3.716466,-5.9921 -1.011524,-0.11848 -1.233789,0.83346 -0.657476,2.81592 0.742267,2.5533 5.551276,12.79582 7.048385,15.01208 0.778485,1.15243 1.834562,2.72393 2.346835,3.49223 2.060227,3.08985 3.834418,5.18209 7.07448,8.34267 5.079001,4.9544 9.667761,8.25935 16.807356,12.10513 6.420124,3.45823 7.702453,4.2306 11.24485,6.77292 5.740746,4.12004 11.441087,10.41756 14.224837,15.71501 0.54829,1.04342 1.10065,1.833 1.22747,1.75462 0.12681,-0.0784 0.29721,-0.67389 0.37864,-1.32335 z m 9.78007,-11.60769 c 3.29969,-3.22934 8.37169,-6.94127 12.29493,-8.998 9.94306,-5.21256 14.39139,-8.06213 18.92633,-12.12402 3.25875,-2.91882 4.85439,-4.70846 7.38169,-8.27913 1.81608,-2.56583 5.76587,-9.16209 6.25232,-10.44154 0.15265,-0.40149 0.98031,-2.24859 1.83926,-4.10465 1.82065,-3.93417 2.82965,-7.46593 2.37545,-8.31461 -0.48955,-0.91472 -1.43578,-1.0434 -2.05444,-0.27938 -1.13717,1.40434 -1.81761,3.10975 -4.00023,10.02594 -0.56623,1.79424 -4.2578,7.81792 -6.59664,10.76399 -3.09796,3.90228 -7.28186,7.91782 -9.99531,9.59307 -3.77968,2.33353 -8.39916,4.4213 -12.81244,5.79057 -4.98395,1.54632 -5.9884,1.97952 -7.94996,3.4286 -1.89653,1.40104 -7.97228,8.89982 -9.19836,11.35273 -0.83085,1.66221 -0.91935,4.88912 -0.13408,4.88912 0.16326,0 1.81543,-1.48621 3.67148,-3.30269 z M 107.13149,56.050279 c 0.64048,-0.640468 0.81665,-1.066985 0.81665,-1.977135 0,-0.910149 -0.17617,-1.336666 -0.81665,-1.977144 -0.97286,-0.97285 -2.00528,-1.052899 -3.31115,-0.256715 -1.69606,1.034093 -1.76296,2.781987 -0.16036,4.189094 1.25789,1.104438 2.38189,1.111523 3.47151,0.02186 z M 107.29295,37.1735 c 3.33709,-0.991011 5.22351,-3.507319 5.23818,-6.987216 0.0177,-4.197837 -2.89667,-7.130361 -7.07732,-7.121427 -2.32919,0.005 -5.842435,2.212534 -6.828635,4.290794 -0.53275,1.122695 -0.5969,3.690014 -0.13104,5.244897 0.64355,2.147992 2.898215,4.079722 5.468525,4.685281 1.5186,0.357777 1.77654,0.349087 3.33029,-0.112329 z M 95.425239,27.322654 c 0.2283,-0.268901 0.75889,-1.091081 1.17909,-1.827067 1.07264,-1.878734 2.308416,-3.211623 3.578211,-3.859433 1.39805,-0.713233 1.6208,-1.290404 0.7549,-1.956104 -0.944685,-0.726276 -1.671975,-0.65497 -2.979365,0.29209 -2.371566,1.717962 -4.640861,5.79958 -4.002907,7.199749 0.347981,0.763725 0.901451,0.820492 1.470071,0.150765 z M 79.006482,59.521021 c -0.05195,-0.153658 -0.13029,-2.999296 -0.173973,-6.323645 l -0.0794,-6.044259 1.647413,-0.171915 c 2.996867,-0.31271 2.682963,-1.052582 2.682963,6.323656 v 6.495548 h -1.99122 c -1.095178,0 -2.033763,-0.125717 -2.085767,-0.279385 z m -9.193495,-0.231437 c -1.174995,-0.53836 -2.870568,-2.363347 -3.242326,-3.489748 -0.508963,-1.542201 -0.193983,-4.015639 0.679452,-5.335495 1.503661,-2.27219 3.858296,-3.374939 6.318693,-2.959255 l 1.101735,0.186127 0.08563,5.775222 c 0.04709,3.176362 0.05639,5.825388 0.0207,5.886705 -0.193814,0.332794 -4.21111,0.28136 -4.963896,-0.06357 z m 57.035663,-5.819749 c -0.10243,-3.40499 -0.15383,-6.216174 -0.11431,-6.247091 0.0395,-0.03094 1.10905,-0.132655 2.37673,-0.226083 l 2.30487,-0.169866 v 6.416957 6.416967 h -2.19057 -2.19057 z m 9.45641,5.945742 -0.83813,-0.179021 -0.0759,-5.564988 c -0.0417,-3.060739 0.0315,-5.672386 0.16276,-5.803668 0.13128,-0.131272 1.10834,-0.264962 2.17125,-0.297094 1.66952,-0.05047 2.11275,0.0472 3.25618,0.717318 1.61557,0.946832 2.60426,2.340719 3.03937,4.285003 0.99366,4.440171 -2.87983,7.875349 -7.71552,6.84245 z"
       id="path33" />
  </g>
</svg>
